<?xml version="1.0" encoding="iso-8859-1"?>
<!-- Generator: Adobe Illustrator 18.0.0, SVG Export Plug-In . SVG Version: 6.00 Build 0)  -->
<!DOCTYPE svg PUBLIC "-//W3C//DTD SVG 1.1//EN" "http://www.w3.org/Graphics/SVG/1.1/DTD/svg11.dtd">
<svg version="1.1" id="Capa_1" xmlns="http://www.w3.org/2000/svg" xmlns:xlink="http://www.w3.org/1999/xlink" x="0px" y="0px"
	 viewBox="0 0 320.796 320.796" style="enable-background:new 0 0 320.796 320.796;" xml:space="preserve">
<g>
	<circle cx="160.398" cy="160.398" r="17.376"/>
	<path d="M315.95,148.957c-9.65-9.348-29.864-27.377-56.823-43.103c-33.521-19.554-66.739-29.469-98.729-29.469
		c-31.992,0-65.211,9.916-98.734,29.472c-26.957,15.726-47.171,33.755-56.821,43.102C1.763,151.94-0.002,156.112,0,160.401
		c0,4.287,1.767,8.457,4.846,11.439c9.65,9.347,29.866,27.376,56.822,43.101c33.522,19.554,66.739,29.469,98.729,29.469
		c31.992,0,65.212-9.916,98.735-29.472c26.957-15.726,47.171-33.755,56.821-43.102c3.079-2.981,4.844-7.153,4.842-11.442
		C320.796,156.107,319.03,151.938,315.95,148.957z M305.519,161.063c-16.554,16.033-75.939,68.348-145.121,68.348
		c-69.178,0-128.563-52.312-145.116-68.345C15.103,160.893,15,160.65,15,160.398s0.101-0.493,0.277-0.665
		c16.554-16.033,75.939-68.348,145.12-68.348s128.564,52.313,145.117,68.345v0.001c0.179,0.173,0.281,0.415,0.281,0.666
		C305.796,160.649,305.695,160.891,305.519,161.063z"/>
	<path d="M160.397,105.27c-30.398,0-55.129,24.73-55.129,55.129s24.73,55.129,55.129,55.129s55.13-24.73,55.13-55.129
		S190.796,105.27,160.397,105.27z M160.397,200.527c-22.127,0-40.129-18.002-40.129-40.129s18.002-40.129,40.129-40.129
		c22.128,0,40.13,18.002,40.13,40.129S182.525,200.527,160.397,200.527z"/>
	<circle cx="50.247" cy="152.898" r="7.5"/>
	<path d="M105.774,119.104c-1.853-3.704-6.354-5.203-10.063-3.354c-15.453,7.727-30.593,17.964-31.229,18.396
		c-3.428,2.325-4.321,6.987-1.997,10.416c1.45,2.139,3.811,3.291,6.214,3.291c1.449,0,2.913-0.419,4.202-1.292
		c0.148-0.101,14.977-10.122,29.52-17.394C106.125,127.314,107.627,122.809,105.774,119.104z"/>
</g>
<g>
</g>
<g>
</g>
<g>
</g>
<g>
</g>
<g>
</g>
<g>
</g>
<g>
</g>
<g>
</g>
<g>
</g>
<g>
</g>
<g>
</g>
<g>
</g>
<g>
</g>
<g>
</g>
<g>
</g>
</svg>
